<svg width="298" height="228" viewBox="0 0 298 228" fill="none" xmlns="http://www.w3.org/2000/svg">
<g clip-path="url(#clip0_735_1282)">
<path d="M281.787 55.9875C276.688 52.4088 270.694 50.5064 264.587 49.5364C261.501 49.0467 258.377 48.8678 255.253 48.7736C253.626 48.7265 251.998 48.7359 250.37 48.7453C249.589 48.7453 248.723 48.8395 247.952 48.7453C247.735 48.7171 247.538 48.6323 247.331 48.5664C246.945 58.6809 245.007 68.9838 243.812 75.755C240.349 95.4189 233.866 114.782 224.41 132.383C220.75 139.201 216.431 145.737 211.538 151.811C220.656 146.199 228.277 137.911 238.147 133.513C244.668 130.603 251.687 129.011 258.264 126.224C264.126 123.738 269.781 120.62 274.853 116.759C284.507 109.423 291.959 99.1201 293.587 86.896C295.13 75.3312 291.667 62.9188 281.797 55.9969L281.787 55.9875ZM273.404 100.683C270.318 103.396 266.159 104.733 262.357 106.108C258.123 107.634 253.673 108.735 249.147 108.387C242.796 107.897 251.97 79.588 253.503 75.8586C254.821 72.6566 256.58 69.4546 259.638 67.6276C262.273 66.0455 265.5 65.7912 268.455 66.4504C275.314 67.9855 279.416 74.0881 280.131 80.8122C280.856 87.6306 278.701 96.0405 273.413 100.693L273.404 100.683Z" fill="#EC233F"/>
<path d="M41.1558 40.9666C46.7449 30.7767 56.888 27.1321 68.1132 23.8454C81.8225 19.824 98.5427 16.1324 112.769 15.1718C127.787 14.1641 143.651 13.9286 158.583 15.7462C173.516 17.5638 187.526 19.9936 202.082 23.6947C209.656 25.6253 214.672 26.0679 221.211 29.1098C225.135 30.9368 231.072 33.5643 236.219 37.9529C236.68 36.399 236.595 34.7133 235.645 32.9145C232.718 27.3958 225.709 25.2392 220.355 23.3933C213.072 20.8882 205.639 18.854 198.14 17.206C183.198 13.9286 167.766 10.9998 152.533 10.0674C125.049 8.39109 98.9285 10.2464 72.0275 16.9611C65.2152 18.6563 58.4876 20.9071 52.2399 24.2315C49.1442 25.8796 46.0015 27.7442 43.3105 30.0516C40.61 32.3683 39.1234 35.3537 39.9608 39.0077C40.2243 40.1378 40.6571 40.053 41.1652 40.976L41.1558 40.9666Z" fill="#DDCEC5"/>
<path d="M171.117 183.521C159.28 188.757 146.558 191.422 133.602 191.045C125.839 190.819 118.02 189.802 110.408 188.295C103.248 186.873 96.426 184.425 90.4605 180.13C84.7585 176.024 79.9222 170.892 75.3305 165.608C71.8302 161.578 68.5276 157.368 65.3378 153.083C62.421 153.865 59.5135 154.637 56.559 155.258C43.6307 157.971 30.5895 161.088 18.7715 167.143C15.8641 168.631 13.0413 170.298 10.3408 172.144C7.84739 173.849 4.93053 175.789 3.63205 178.633C2.17362 181.835 3.91433 185.122 5.815 187.712C7.62157 190.17 9.81392 192.364 12.1851 194.285C21.7448 202.026 34.2403 205.238 45.9736 207.969C60.4639 211.34 75.1611 213.742 89.9524 215.296C119.695 218.432 149.729 218.272 179.519 215.927C193.219 214.844 207.116 213.827 220.59 211.058C232.813 208.543 245.261 204.409 255.056 196.423C257.512 194.426 259.921 192.175 260.608 188.945C261.172 186.299 260.438 183.464 259.149 181.138C256.016 175.516 249.665 172.662 243.972 170.336C231.035 165.053 217.288 161.898 203.353 160.937C194.056 170.345 183.226 178.181 171.135 183.521H171.117Z" fill="white"/>
<path d="M36.5363 53.6047C41.8713 58.031 48.4766 60.8939 54.9972 63.2483C71.4728 69.1814 88.8046 73.5888 106.193 76.0751C140.141 80.9157 175.426 78.7685 207.427 66.1583C214.935 63.2012 222.463 59.7355 229.181 55.2999C235.146 51.3539 240.378 46.1742 242.109 39.1769C242.185 38.8567 242.232 38.5177 242.298 38.1975C242.316 38.0751 242.326 37.9526 242.345 37.8302C242.345 37.7643 242.392 37.7266 242.401 37.6607C243.285 32.3303 242.081 26.3313 237.461 22.9222C234.525 20.7561 230.837 19.8144 227.327 18.9197C222.858 17.7802 218.389 16.6783 213.91 15.5953C165.819 3.98338 114.05 -2.98564 66.2224 12.2049C57.8952 14.8513 49.7468 17.9591 41.8243 21.5849C35.8118 24.3348 28.5666 27.9982 27.4375 35.0614C26.2896 42.2659 31.173 49.1502 36.5457 53.6047H36.5363ZM35.6894 31.0778C38.0041 28.2525 41.4103 26.1995 44.4871 24.3913C47.5921 22.5643 50.8477 21.0104 54.1692 19.6731C61.1132 16.8761 68.3865 15.0773 75.6975 13.6741C83.4696 12.1767 91.3169 11.056 99.1548 9.9353C136.312 4.59553 174.72 8.47558 210.654 19.3246C217.203 21.3023 224.448 23.167 229.981 27.4897C234.723 31.1908 237.574 37.3123 233.895 42.9628C232.013 45.8446 229.19 47.8788 226.462 49.8282C223.413 52.0131 220.261 54.0285 217.024 55.8932C210.748 59.4907 204.152 62.4949 197.387 64.9341C168.153 75.4818 136.509 75.2652 106.315 69.7841C89.8961 66.8082 73.7592 62.3254 57.8294 57.2964C51.0641 55.1586 43.0757 53.4823 37.7595 48.3026C37.0538 47.6151 36.4422 46.8334 35.8776 46.0235C35.8494 45.9859 35.8118 45.9482 35.8023 45.9011C32.8008 41.4654 32.0951 35.4947 35.6988 31.0872L35.6894 31.0778Z" fill="white"/>
<path d="M237.339 79.8611C238.637 72.9203 239.616 65.9231 240.359 58.9069C240.764 55.1022 241.037 51.2881 241.347 47.4834C240.914 48.1144 240.463 48.7359 239.973 49.3292C235.128 55.2058 228.616 59.3307 221.719 62.7964C213.844 66.7612 205.583 70.0574 197.114 72.7226C162.469 83.6093 125.359 83.2891 89.9619 75.9905C80.769 74.0975 71.6891 71.7243 62.7409 68.9555C55.4017 66.6859 47.9778 64.2844 41.2314 60.6586C36.0375 57.871 31.1729 54.1605 27.8232 49.4423C29.4699 60.7905 32.0198 72.0727 35.266 83.0442C39.0485 95.8333 44.0071 108.274 50.0855 120.15C56.1168 131.931 63.2114 143.204 71.3316 153.657C75.3964 158.894 79.687 163.998 84.3069 168.744C89.0586 173.623 94.3748 178.105 100.707 180.771C107.444 183.615 114.953 184.679 122.16 185.574C129.528 186.487 136.98 186.883 144.375 186.139C156.024 184.971 167.315 180.997 177.458 175.214C185.682 170.524 193.106 164.723 199.702 158.102C199.815 157.217 200.379 156.473 201.395 156.332C211.454 145.775 219.508 133.268 225.417 119.858C231.035 107.097 234.789 93.5449 237.339 79.8611V79.8611Z" fill="#EC233F"/>
<path d="M171.022 219.788C139.633 221.597 108.093 221.173 76.9206 216.841C66.6646 215.419 56.3332 213.695 46.1807 211.312C49.3986 214.59 53.7551 216.568 58.1963 217.82C64.6134 219.638 71.3504 220.523 77.9368 221.502C104.875 225.533 132.172 225.816 159.336 224.582C172.923 223.96 186.491 222.915 200.041 221.681C206.542 221.088 213.345 220.918 219.659 219.139C222.397 218.366 225.06 217.189 227.29 215.39C228.325 214.552 229.209 213.573 230.009 212.527C225.436 213.714 220.788 214.637 216.093 215.381C201.207 217.764 186.058 218.912 171.022 219.779V219.788Z" fill="#E5E5E3"/>
<path d="M287.095 56.0813C281.722 51.2124 274.853 48.3401 267.777 47.031C264.061 46.3435 260.269 46.0328 256.486 45.9857C254.614 45.9574 252.732 46.061 250.86 46.1835C249.919 46.2494 248.865 46.2682 247.952 46.5131C247.745 46.5696 247.566 46.6732 247.369 46.7579C247.425 43.8385 247.341 40.9567 247.058 38.1973C246.343 31.3225 244.386 25.2293 240.312 21.321C237.602 18.7123 234.008 17.1867 230.366 16.1131C221.456 13.4667 212.188 11.5926 203.089 9.58667C193.783 7.53364 184.43 5.65954 175.012 4.1433C159.929 1.70415 144.639 0.140825 129.33 0.103155C129.189 0.0372315 129.019 0.00897867 128.831 -0.000438921C110.756 -0.141703 92.6056 2.48581 75.1891 6.98742C66.4762 9.23822 57.9232 12.007 49.5489 15.209C42.3791 17.9401 34.1178 20.6523 28.5569 25.9639C26.2987 28.1111 24.8873 30.6162 24.1816 33.2625C23.7676 33.4132 23.4383 33.7805 23.4477 34.3926C23.7018 48.0764 25.2355 61.7602 28.5099 75.0672C31.7937 88.3931 36.3572 101.399 42.0686 113.887C47.7706 126.346 54.6393 138.278 62.5995 149.429C63.07 150.088 63.5687 150.709 64.0486 151.359C50.7157 152.866 37.2416 155.964 24.812 161.022C18.4702 163.602 12.3448 166.785 6.82158 170.863C4.40341 172.652 2.00405 174.687 0.771441 177.502C-0.621126 180.676 0.0563392 184.048 1.67473 187.005C7.77191 198.099 20.8131 204.022 32.3206 207.592C35.9055 208.703 39.5469 209.711 43.2071 210.615C49.2855 219.043 61.0376 221.162 70.6444 222.895C84.5701 225.41 98.7122 226.794 112.845 227.491C141.44 228.894 170.053 227.274 198.535 224.722C202.571 224.364 206.608 223.997 210.635 223.583C214.211 223.215 217.833 222.773 221.277 221.69C226.226 220.136 232.032 216.717 233.697 211.5C240.763 209.39 247.576 206.537 253.852 202.403C259.309 198.814 265.209 194.379 265.359 187.24C265.5 180.441 261.125 174.771 255.734 171.136C249.721 167.077 242.391 164.629 235.541 162.444C228.183 160.099 220.618 158.404 212.969 157.358C212.376 157.273 211.783 157.226 211.19 157.151C220.411 152.075 227.939 144.136 237.254 139.069C243.84 135.481 251.311 133.974 258.236 131.196C264.503 128.682 270.534 125.574 276.02 121.609C286.699 113.887 295.196 102.943 297.426 89.7022C299.458 77.61 296.438 64.5383 287.123 56.0908L287.095 56.0813ZM27.4278 35.0613C28.5569 27.9887 35.802 24.3346 41.8145 21.5847C49.7371 17.9589 57.8949 14.8511 66.2127 12.2048C114.049 -2.98582 165.809 3.99262 213.91 15.5857C218.388 16.6687 222.867 17.7706 227.327 18.9101C230.837 19.8048 234.516 20.7465 237.461 22.9126C242.081 26.3217 243.285 32.3208 242.401 37.6511C242.382 37.7076 242.354 37.7547 242.344 37.8206C242.325 37.9431 242.316 38.0655 242.297 38.1879C242.231 38.5175 242.194 38.8471 242.109 39.1673C240.378 46.1552 235.146 51.3443 229.181 55.2903C222.463 59.7354 214.935 63.1916 207.427 66.1487C175.426 78.7683 140.15 80.9155 106.193 76.0655C88.8043 73.5886 71.4725 69.1718 54.9969 63.2387C48.4763 60.8937 41.871 58.0214 36.536 53.5951C31.1633 49.1406 26.2799 42.2563 27.4278 35.0519V35.0613ZM227.289 215.399C225.059 217.198 222.397 218.375 219.659 219.147C213.345 220.927 206.542 221.096 200.04 221.69C186.491 222.914 172.923 223.969 159.336 224.59C132.171 225.824 104.875 225.542 77.9366 221.511C71.3501 220.531 64.6131 219.637 58.196 217.829C53.7454 216.576 49.3984 214.598 46.1804 211.321C56.3236 213.694 66.6643 215.418 76.9204 216.849C108.103 221.181 139.633 221.614 171.022 219.797C186.068 218.93 201.207 217.772 216.092 215.399C220.778 214.655 225.436 213.732 230.009 212.545C229.209 213.591 228.334 214.57 227.289 215.408V215.399ZM243.953 170.336C249.646 172.662 255.997 175.515 259.13 181.138C260.429 183.464 261.153 186.298 260.589 188.945C259.902 192.175 257.493 194.426 255.037 196.422C245.233 204.408 232.794 208.543 220.571 211.057C207.097 213.826 193.19 214.843 179.5 215.926C149.71 218.281 119.676 218.431 89.9334 215.295C75.1421 213.741 60.4448 211.33 45.9546 207.968C34.2119 205.237 21.7258 202.035 12.166 194.285C9.7949 192.363 7.60255 190.169 5.79597 187.711C3.90472 185.121 2.1546 181.834 3.61303 178.633C4.91151 175.788 7.82837 173.848 10.3218 172.144C13.0223 170.298 15.845 168.64 18.7525 167.143C30.5799 161.088 43.6211 157.97 56.54 155.258C59.4945 154.636 62.4114 153.874 65.3188 153.083C68.5085 157.368 71.8112 161.577 75.3114 165.608C79.9031 170.901 84.7395 176.024 90.4415 180.13C96.4069 184.424 103.229 186.873 110.389 188.295C118.001 189.802 125.83 190.819 133.583 191.045C146.539 191.431 159.261 188.756 171.097 183.52C183.188 178.18 194.018 170.336 203.315 160.937C217.25 161.897 230.997 165.052 243.934 170.336H243.953ZM201.395 156.332C200.379 156.463 199.805 157.217 199.702 158.102C193.106 164.723 185.691 170.524 177.458 175.214C167.315 180.996 156.024 184.971 144.375 186.138C136.98 186.882 129.527 186.477 122.16 185.573C114.953 184.679 107.444 183.605 100.707 180.77C94.3745 178.105 89.0583 173.622 84.3067 168.744C79.6867 163.998 75.3961 158.884 71.3313 153.657C63.2111 143.204 56.1166 131.931 50.0853 120.149C44.0069 108.274 39.0482 95.8424 35.2657 83.0439C32.0195 72.0724 29.4696 60.7901 27.823 49.4419C31.1727 54.1602 36.0373 57.8707 41.2312 60.6583C47.9682 64.2841 55.3921 66.6761 62.7407 68.9552C71.6889 71.724 80.7688 74.0878 89.9616 75.9901C125.359 83.2888 162.469 83.6184 197.114 72.7222C205.582 70.0571 213.844 66.7609 221.719 62.7961C228.607 59.3304 235.127 55.2055 239.973 49.3289C240.462 48.7356 240.914 48.1141 241.347 47.4831C241.036 51.2878 240.763 55.1019 240.359 58.9066C239.616 65.9227 238.637 72.92 237.339 79.8608C234.779 93.5445 231.034 107.096 225.417 119.857C219.508 133.277 211.463 145.775 201.395 156.332ZM293.587 86.8957C291.959 99.1198 284.507 109.423 274.853 116.759C269.782 120.62 264.117 123.737 258.265 126.224C251.688 129.011 244.678 130.603 238.148 133.513C228.277 137.911 220.656 146.198 211.538 151.811C216.431 145.727 220.75 139.192 224.41 132.383C233.867 114.781 240.359 95.4186 243.812 75.7547C245.007 68.9835 246.945 58.6806 247.331 48.5661C247.538 48.632 247.745 48.7262 247.952 48.745C248.733 48.8392 249.599 48.7545 250.37 48.745C251.998 48.7356 253.626 48.7262 255.254 48.7733C258.378 48.8675 261.501 49.0464 264.588 49.5361C270.694 50.5061 276.688 52.4085 281.788 55.9872C291.658 62.9185 295.121 75.3215 293.578 86.8863L293.587 86.8957Z" fill="#010101"/>
<path d="M268.455 66.441C265.5 65.7817 262.273 66.036 259.638 67.6182C256.58 69.4546 254.821 72.6566 253.504 75.8491C251.97 79.5691 242.796 107.878 249.147 108.378C253.673 108.726 258.124 107.624 262.358 106.098C266.159 104.733 270.327 103.386 273.404 100.674C278.692 96.0216 280.847 87.6117 280.122 80.7934C279.407 74.0692 275.314 67.9666 268.445 66.4315L268.455 66.441ZM271.522 96.7468C268.897 99.412 264.926 100.589 261.483 101.823C258.321 102.953 255.122 103.829 251.801 103.989C251.904 102.981 251.895 101.964 251.706 100.966C251.575 100.288 251.274 99.638 250.907 99.007C251.753 93.3753 252.572 87.7718 254.313 82.2908C256.035 76.8662 258.453 69.0402 265.397 69.1344C271.221 69.2097 275.427 73.862 276.49 79.3148C277.619 85.1443 275.719 92.4806 271.513 96.7562L271.522 96.7468Z" fill="#010101"/>
<path d="M282.296 67.8349C276.848 59.425 264.851 56.0347 255.809 60.3385C252.328 61.996 249.025 64.6706 245.487 65.8572C244.904 69.5678 244.292 72.9675 243.803 75.7457C240.34 95.4097 233.857 114.772 224.401 132.374C220.741 139.192 216.422 145.728 211.529 151.802C220.647 146.189 228.268 137.902 238.139 133.504C240.707 132.355 243.351 131.423 246.014 130.528C246.052 130.434 246.099 130.34 246.136 130.245C247.435 126.827 248.536 123.22 250.926 120.451C252.845 118.238 255.452 116.741 258.124 115.535C265.839 112.051 274.844 110.365 280.555 104.102C285.589 98.5834 286.926 90.5784 286.559 83.1103C286.295 77.7611 285.213 72.3083 282.296 67.8161V67.8349ZM273.404 100.684C270.318 103.396 266.159 104.733 262.358 106.108C258.124 107.634 253.673 108.736 249.147 108.387C242.796 107.897 251.97 79.5881 253.504 75.8587C254.821 72.6568 256.581 69.4548 259.639 67.6278C262.273 66.0456 265.501 65.7913 268.455 66.4506C275.315 67.9856 279.417 74.0882 280.132 80.8124C280.857 87.6307 278.702 96.0406 273.414 100.693L273.404 100.684Z" fill="#C31A39"/>
<path d="M221.72 62.787C213.844 66.7518 205.583 70.048 197.114 72.7131C194.188 73.6361 191.234 74.446 188.27 75.2088C187.225 96.6621 184.44 118.473 172.669 136.178C166.299 145.765 157.614 153.582 148.506 160.626C136.491 169.922 123.384 178.105 109.223 183.455C113.494 184.443 117.87 185.046 122.16 185.574C129.528 186.487 136.98 186.883 144.376 186.139C156.024 184.971 167.315 180.997 177.458 175.214C185.682 170.524 193.106 164.723 199.702 158.102C199.815 157.217 200.379 156.473 201.396 156.332C211.454 145.775 219.508 133.268 225.417 119.858C231.035 107.097 234.789 93.5449 237.339 79.8611C238.637 72.9203 239.616 65.9231 240.359 58.9069C240.764 55.1022 241.037 51.2881 241.347 47.4834C240.914 48.1144 240.463 48.7359 239.973 49.3292C235.128 55.2058 228.616 59.3307 221.72 62.7964V62.787Z" fill="#C31A39"/>
<path d="M203.663 177.645C199.297 175.78 194.771 174.019 190.123 172.371C184.205 176.75 177.863 180.536 171.117 183.512C159.28 188.748 146.558 191.413 133.602 191.036C125.839 190.81 118.02 189.793 110.408 188.286C103.248 186.864 96.4261 184.416 90.4606 180.121C85.0221 176.204 80.3833 171.354 75.9892 166.334C67.6714 168.622 60.1064 171.043 52.8989 177.268C50.9983 178.906 49.1164 180.875 48.7589 183.361C48.4672 185.414 49.2858 187.495 50.5184 189.162C53.8681 193.711 59.7677 195.463 65.2815 196.677C79.3483 199.766 93.7162 201.17 108.046 202.573C124.108 204.136 140.245 205.709 156.363 204.937C172.49 204.164 188.721 200.953 203.014 193.457C207.079 191.319 211.567 187.401 210.137 183.031C209.243 180.272 206.326 178.793 203.663 177.654V177.645Z" fill="#E5E5E3"/>
<path d="M232.041 27.4806C226.509 23.1579 219.264 21.2933 212.715 19.3156C176.781 8.47591 138.372 4.58645 101.215 9.92622C93.3867 11.0563 85.5394 12.1676 77.758 13.665C70.447 15.0682 63.1737 16.867 56.2296 19.664C52.8988 21.0013 49.6432 22.5458 46.5475 24.3822C43.4707 26.1904 40.0646 28.2434 37.7499 31.0687C34.1462 35.4762 34.8519 41.4469 37.8534 45.8826C37.8722 45.9297 37.9004 45.9579 37.9287 46.005C38.4932 46.8244 39.1048 47.5966 39.8105 48.2841C45.1267 53.4638 53.1152 55.1401 59.8804 57.2779C75.8103 62.3163 91.9471 66.7897 108.366 69.7656C138.56 75.2467 170.204 75.4633 199.438 64.9156C206.213 62.4764 212.809 59.4722 219.075 55.8747C222.312 54.0194 225.474 51.9946 228.513 49.8097C231.241 47.8603 234.064 45.8261 235.946 42.9443C239.625 37.2938 236.774 31.1817 232.032 27.4712L232.041 27.4806Z" stroke="#211E1F" stroke-miterlimit="10"/>
<path d="M232.041 27.4806C226.509 23.1579 219.264 21.2933 212.715 19.3156C176.781 8.47591 138.372 4.58645 101.215 9.92622C93.3867 11.0563 85.5394 12.1676 77.758 13.665C70.447 15.0682 63.1737 16.867 56.2296 19.664C52.8988 21.0013 49.6432 22.5458 46.5475 24.3822C43.4707 26.1904 40.0646 28.2434 37.7499 31.0687C34.1462 35.4762 34.8519 41.4469 37.8534 45.8826C37.8722 45.9297 37.9004 45.9579 37.9287 46.005C38.4932 46.8244 39.1048 47.5966 39.8105 48.2841C45.1267 53.4638 53.1152 55.1401 59.8804 57.2779C75.8103 62.3163 91.9471 66.7897 108.366 69.7656C138.56 75.2467 170.204 75.4633 199.438 64.9156C206.213 62.4764 212.809 59.4722 219.075 55.8747C222.312 54.0194 225.474 51.9946 228.513 49.8097C231.241 47.8603 234.064 45.8261 235.946 42.9443C239.625 37.2938 236.774 31.1817 232.032 27.4712L232.041 27.4806Z" stroke="#1E150F" stroke-miterlimit="10"/>
<path d="M234.002 35.1572C237.683 41.7604 205.842 65.4678 156.809 68.5221C111.994 71.3147 41.4103 47.3939 41.4009 42.1191C41.3632 28.2632 87.2797 14.126 132.217 14.126C177.154 14.126 231.412 30.5127 234.002 35.1572V35.1572Z" stroke="black" stroke-miterlimit="10" stroke-dasharray="4 4"/>
</g>
<defs>
<clipPath id="clip0_735_1282">
<rect width="298" height="228" fill="white"/>
</clipPath>
</defs>
</svg>
