<svg id="圖層_1" data-name="圖層 1" xmlns="http://www.w3.org/2000/svg" viewBox="0 0 241 72.73"><defs><style>.cls-1{fill:#cb2740;}.cls-2{fill:#0a0a09;}.cls-3{fill:#070706;}.cls-4{fill:#060605;}.cls-5{fill:#0d0e0c;}.cls-6{fill:#0f100e;}.cls-7{fill:#0b0c0a;}.cls-8{fill:#0e0e0d;}.cls-9{fill:#0f0f0e;}.cls-10{fill:#0e0f0d;}</style></defs><path class="cls-1" d="M152.14,32.9c-4.33,0-7.93-1.89-11.3-4.37a47.64,47.64,0,0,1-4.91-4.17c-.59-.58-1-.62-1.57,0A44.93,44.93,0,0,1,127.3,30c-6.71,4.34-15.11,3.73-20.27-1.63a13.59,13.59,0,0,1-3.29-14.46c1.78-5.49,5.8-8.6,11.41-9.69s10,1,14.28,4.21a52.26,52.26,0,0,1,5,4.26c.53.52.85.51,1.38,0A50.37,50.37,0,0,1,143,6.94c6.49-4.22,14.28-3.94,19.48.85a13.7,13.7,0,0,1,4.08,15c-1.74,5.66-5.85,8.86-11.64,9.94-.48.08-.95.16-1.43.2S152.58,32.9,152.14,32.9ZM118.27,11.39c-4.92,0-8.39,3.64-7.76,8,.7,4.76,5.95,7.52,10.59,5.55,3.17-1.35,5.65-3.66,8.16-5.92.51-.46.25-.71-.1-1a44.49,44.49,0,0,0-5.52-4.46A10.78,10.78,0,0,0,118.27,11.39Zm41.45,7.26c.2-5.21-5.38-8.77-10.45-6.63-3.21,1.35-5.71,3.7-8.25,6-.37.33-.44.56,0,.93,2.55,2.29,5.07,4.62,8.29,6C154.22,27,159.52,23.77,159.72,18.65Z"/><path class="cls-2" d="M180.3,13.92V15.7c0,6.32,0,12.64,0,19,0,1-.23,1.29-1.23,1.23a33.62,33.62,0,0,0-4.6,0c-1.14.09-1.23-.4-1.23-1.33,0-8,0-16.06,0-24.09,0-3.16,0-6.32,0-9.48,0-.84.24-1,1-1,3.4,0,3.38,0,5.52,2.6q7.95,9.74,15.92,19.44a3.17,3.17,0,0,1,.23.45l.33-.15V21c0-6.32,0-12.64,0-19,0-1,.28-1.34,1.3-1.28,1.62.08,3.25.05,4.87,0,.68,0,.89.17.88.88q0,17,0,34.09c0,.74-.19.94-.94.95-3.43,0-3.41.05-5.54-2.56Z"/><path class="cls-3" d="M100.38,35.83c-3.13,0-6,0-8.87,0-.55,0-.76-.37-1.05-.68l-6-6.48c-.44-.48-3.47-.87-3.94-.51-.3.23-.18.56-.18.86,0,2,0,3.94,0,5.91,0,.67-.13.92-.86.9-1.84-.05-3.68,0-5.52,0-.64,0-.8-.19-.8-.81q0-16.71,0-33.41c0-.46,0-.85.64-.83,4.07.14,8.16-.27,12.21.29,9.71,1.36,15,11.06,10.61,19.6a11.09,11.09,0,0,1-4.31,4.66c-1,.57-.86.92-.18,1.65C94.89,29.85,97.53,32.75,100.38,35.83Zm-20-21.55c0,2.14,0,4.29,0,6.44,0,.74.21,1,1,1a24.26,24.26,0,0,0,4.17-.32,6.27,6.27,0,0,0,5.42-5.87c.27-4.23-1.1-6.52-4.58-7.69a18.88,18.88,0,0,0-4.91-.67c-.93-.06-1.08.31-1.06,1.11C80.39,10.25,80.36,12.26,80.36,14.28Z"/><path class="cls-4" d="M41.88,18.29c0-5.39,0-10.79,0-16.19,0-.94.12-1.33,1.23-1.32,6.85.06,13.69,0,20.54,0,.93,0,1.19.25,1.14,1.17a27.27,27.27,0,0,0,0,3.94c.1,1.11-.36,1.27-1.32,1.26-4.39,0-8.78,0-13.16,0-1,0-1.3.18-1.25,1.21.09,1.93.1,3.86,0,5.79-.06,1.15.36,1.36,1.41,1.34,4.34,0,8.69,0,13,0,1.06,0,1.36.29,1.29,1.32a25.5,25.5,0,0,0,0,3.81c.1,1.15-.36,1.35-1.4,1.34-4.35-.06-8.69,0-13-.05-1,0-1.36.25-1.3,1.29.09,1.75.08,3.51,0,5.27,0,.94.26,1.15,1.17,1.15,5.18-.05,10.35,0,15.53-.06,1.26,0,1.53.39,1.44,1.52a20,20,0,0,0,0,3.55c.12,1.17-.34,1.32-1.37,1.31-7.51,0-15-.06-22.51,0-1.26,0-1.46-.39-1.45-1.52C41.91,29,41.88,23.65,41.88,18.29Z"/><path class="cls-4" d="M209.62,18.21c0-5.44,0-10.88,0-16.32,0-.83.16-1.11,1.05-1.1q10.4.06,20.8,0c.91,0,1.09.3,1.05,1.12-.06,1.36-.07,2.72,0,4.08.06.9-.19,1.18-1.13,1.17-4.43,0-8.87,0-13.3,0-1,0-1.33.26-1.29,1.3.09,1.92.08,3.86,0,5.79,0,1,.23,1.27,1.24,1.25,4.38,0,8.77,0,13.16,0,1,0,1.42.17,1.33,1.28a32.51,32.51,0,0,0,0,4.07c0,.86-.21,1.12-1.09,1.11-4.43,0-8.86,0-13.29-.05-1.12,0-1.4.32-1.34,1.4a41.47,41.47,0,0,1,0,4.86c-.06,1.1.17,1.49,1.4,1.47,5.17-.08,10.35,0,15.53-.06,1,0,1.28.21,1.21,1.21-.1,1.44,0,2.89,0,4.34,0,.63-.17.81-.81.81-7.89,0-15.79,0-23.68,0-1,0-.8-.52-.8-1.07Z"/><path class="cls-3" d="M16.7,29.51c5.95,0,11.65,0,17.35,0,1,0,1.34.27,1.27,1.29a28.93,28.93,0,0,0,0,3.95c.06.93-.23,1.14-1.15,1.14-8.2,0-16.41,0-24.61,0-.84,0-1.67,0-2.5,0-.58,0-.7-.18-.75-.74a6.6,6.6,0,0,1,1.36-4.73C13,23.06,18.22,15.64,23.48,8.26c.22-.31.43-.64.75-1.12H16.64c-2.41,0-4.83,0-7.24,0-.69,0-1-.09-1-.9.06-1.53.06-3.07,0-4.6,0-.74.25-.85.9-.85q12.24,0,24.48,0c.79,0,.89.29.94,1A6.09,6.09,0,0,1,33.46,6C28,13.53,22.66,21.11,17.27,28.67,17.12,28.88,17,29.09,16.7,29.51Z"/><path class="cls-5" d="M106.32,63.38a4.81,4.81,0,0,0,1.16,1.41c1.16,1.33,1.17,1.32,1.89-.27a3.81,3.81,0,0,0,.41-1.09c.06-.65.36-.76.94-.74,2.89.09,3.21.59,1.89,3.15a13.62,13.62,0,0,1-1,1.67c-.78,1.11-.58,1.76.76,1.72,2.13-.07,1,1.44,1.18,2.24.28,1.16-.7,1-1.34,1a4.29,4.29,0,0,1-3.51-1.12c-.48-.47-.77-.27-1.19,0a8.76,8.76,0,0,1-7,1.08,5.21,5.21,0,0,1-4.05-4.29,4.5,4.5,0,0,1,2.83-5.09c1.11-.51,1.16-.81.48-1.78a3.65,3.65,0,0,1,1.76-5.71,7.11,7.11,0,0,1,4.75-.25,4.07,4.07,0,0,1,1.13,7.47Zm-3.1,6.17A5.37,5.37,0,0,0,105.3,69c.7-.29.69-.6.18-1.12a34.85,34.85,0,0,1-2.38-2.63.83.83,0,0,0-1.33-.15,2.22,2.22,0,0,0-1,2.6A2.51,2.51,0,0,0,103.22,69.55Zm2.94-9.95a1.74,1.74,0,0,0-1.85-1.9c-.82,0-1.45.38-1.52,1.28-.06.67,1.29,2.3,1.79,2.16C105.46,60.88,106.13,60.35,106.16,59.6Z"/><path class="cls-2" d="M122.07,63.88q0-3.81,0-7.63c0-.39-.18-1,.55-.92,3.11.12,6.23-.3,9.32.24a4.6,4.6,0,0,1,3.87,3.92c.32,2.06-.2,3.88-2.12,5-.77.43-.65.8-.38,1.41.8,1.84,1.54,3.71,2.35,5.54.33.73.38,1-.62,1-3.42,0-3.42.06-4.66-3.12-.35-.89-.75-1.77-1-2.68a1.15,1.15,0,0,0-1.31-1c-1.91,0-1.91,0-1.91,1.93,0,1.32,0,2.64,0,4,0,.71-.23.85-.89.87-3.2.06-3.2.09-3.2-3Zm4.07-3.39c0,2.23,0,2.23,2.23,2.22.44,0,.88,0,1.31,0a2.09,2.09,0,0,0,2-2.15,2,2,0,0,0-2.06-2.06c-.47,0-1,0-1.43,0C126.14,58.47,126.14,58.47,126.14,60.49Z"/><path class="cls-2" d="M212.19,63.9c0-2.55,0-5.09,0-7.64,0-.38-.22-1,.53-.93,3.11.12,6.23-.3,9.32.25a4.65,4.65,0,0,1,3.85,3.81,4.56,4.56,0,0,1-2.14,5.09c-.63.39-.64.72-.39,1.3.84,1.92,1.62,3.86,2.47,5.77.3.69.18.87-.6.9-3.5.09-3.5.12-4.78-3.15-.3-.78-.55-1.57-.89-2.32-.25-.55-.24-1.26-1.21-1.29-2.14-.06-2.14-.12-2.14,2,0,1.32-.05,2.64,0,4,0,1.11-.76.87-1.22.74-.94-.26-2.57.93-2.75-.74A71.49,71.49,0,0,1,212.19,63.9Zm4-3.4c0,2.22,0,2.22,2.26,2.21a9,9,0,0,0,1.56-.05,2.06,2.06,0,0,0,1.71-2.27,1.91,1.91,0,0,0-1.92-1.9c-.52-.05-1.05,0-1.57,0C216.22,58.46,216.22,58.47,216.22,60.5Z"/><path class="cls-6" d="M144.8,72.7a6.2,6.2,0,0,1-5.55-3.29,10.59,10.59,0,0,1-.07-11,6.76,6.76,0,0,1,11.89.19,10.8,10.8,0,0,1,0,10.55C149.84,71.64,147.69,72.68,144.8,72.7Zm3.32-8.82a11.28,11.28,0,0,0-.56-3.7,2.49,2.49,0,0,0-2.36-1.75,2.4,2.4,0,0,0-2.53,1.69,10.84,10.84,0,0,0,0,7.57,2.39,2.39,0,0,0,2.44,1.64,2.46,2.46,0,0,0,2.4-1.68A10.64,10.64,0,0,0,148.12,63.88Z"/><path class="cls-5" d="M16.07,63.61a9.94,9.94,0,0,1,.84-4.15A6.59,6.59,0,0,1,23,55.08,6.28,6.28,0,0,1,29.56,59,10.83,10.83,0,0,1,29,69.83c-2.45,3.88-8.62,3.85-11.16,0A10.66,10.66,0,0,1,16.07,63.61Zm10.32.32a9.36,9.36,0,0,0-.53-3.74,2.46,2.46,0,0,0-2.34-1.76A2.4,2.4,0,0,0,21,60.1a10.57,10.57,0,0,0,0,7.57,2.4,2.4,0,0,0,2.43,1.66,2.45,2.45,0,0,0,2.42-1.67A8.77,8.77,0,0,0,26.39,63.93Z"/><path class="cls-7" d="M76.26,63.84c0-2.5,0-5,0-7.5,0-.79.18-1,1-1q5.13.07,10.26,0c.85,0,1,.25,1,1,0,2.34,0,2.34-2.32,2.34-1.67,0-3.34,0-5,0-.63,0-.81.2-.83.83-.11,2.6-.14,2.6,2.48,2.6h2.24c1.74,0,1.67,0,1.76,1.74.06,1.15-.21,1.64-1.48,1.52s-2.71,0-4.07,0c-.63,0-.91.09-.94.84C80.27,69,80.23,69,83.07,69c1.54,0,3.07,0,4.61,0,.59,0,.81.11.83.78.1,2.65.13,2.65-2.51,2.65-2.9,0-5.79,0-8.68,0-.91,0-1.09-.29-1.08-1.11C76.29,68.84,76.26,66.34,76.26,63.84Z"/><path class="cls-8" d="M61.64,63.82c0-2.5,0-5,0-7.49,0-.82.22-1,1-1,3.42,0,6.84,0,10.26,0,.9,0,1.08.28,1.07,1.11,0,2.26,0,2.26-2.18,2.26-1.71,0-3.42,0-5.13,0-.7,0-.85.22-.87.89,0,2.54-.07,2.54,2.51,2.54a22.88,22.88,0,0,0,2.62,0c1.1-.13,1.38.34,1.24,1.31a2.27,2.27,0,0,0,0,.78c.2,1.06-.31,1.23-1.23,1.18-1.4-.07-2.81,0-4.21,0-.6,0-.92,0-.94.82C65.73,69,65.69,69,68.6,69c1.54,0,3.07,0,4.61,0,.54,0,.73.15.77.73.17,2.7.2,2.7-2.5,2.7-2.85,0-5.7,0-8.55,0-1,0-1.36-.17-1.32-1.26C61.71,68.74,61.64,66.28,61.64,63.82Z"/><path class="cls-8" d="M197.53,63.75c0-2.46,0-4.92,0-7.37,0-.75.1-1.09,1-1.07,3.46,0,6.93,0,10.39,0,.88,0,1,.32,1,1.07,0,2.3,0,2.3-2.25,2.3-1.63,0-3.25,0-4.87,0-.74,0-1.07.08-1.07,1,0,2.46,0,2.46,2.45,2.46,1,0,1.94,0,2.9,0,.77,0,1.06.13,1.05,1,0,2.26,0,2.26-2.25,2.26-1,0-2,.08-3,0s-1.13.29-1.11,1.17c0,2.54,0,2.54,2.49,2.54,1.62,0,3.24,0,4.87,0,.61,0,.8.17.82.8.1,2.63.13,2.63-2.43,2.63-2.89,0-5.79,0-8.68,0-1,0-1.29-.18-1.26-1.21C197.59,68.75,197.53,66.25,197.53,63.75Z"/><path class="cls-9" d="M175.41,72.65c-2.85-.06-5.37-.78-6.72-3.63-.33-.71-.55-1.32.63-1.35a4,4,0,0,0,1.27-.28,1.37,1.37,0,0,1,2,.76c.69,1.33,3.65,1.69,4.87.77a1.4,1.4,0,0,0-.44-2.61c-1.43-.51-2.94-.78-4.38-1.27-2.38-.81-3.4-2.18-3.47-4.4a5.18,5.18,0,0,1,3.2-5,8.28,8.28,0,0,1,6.15,0A5.46,5.46,0,0,1,181.41,58c.44.73.52,1.26-.5,1.46a5.28,5.28,0,0,0-1.13.34c-.83.38-1.38.4-2-.55-.67-1.11-2.82-1.37-3.95-.69a1.23,1.23,0,0,0-.63,1.21,1.33,1.33,0,0,0,1.07,1.32c1.55.45,3.14.77,4.65,1.31a4.89,4.89,0,0,1,2.2,7.9,6.71,6.71,0,0,1-4.83,2.31A7,7,0,0,1,175.41,72.65Z"/><path class="cls-6" d="M168.25,72.43c-1.32,0-2.54-.05-3.76,0-.73,0-.74-.48-.88-.89-.87-2.62-.86-2.62-3.65-2.62-2.57,0-2.61,0-3.29,2.39-.24.86-.6,1.24-1.52,1.12a18.29,18.29,0,0,0-2.22,0c-.28-.4,0-.71.11-1,1.59-5,3.24-10,4.81-15.08.26-.84.63-1.1,1.46-1,1.18.08,2.66-.36,3.46.2s.88,2.08,1.23,3.2C165.41,63.24,166.81,67.78,168.25,72.43Zm-8-12.08-.26,0c-.32,1-.66,2-1,3.06-.72,2.37-.71,2.33,1.8,2.32,1,0,1-.32.7-1.09C161.08,63.2,160.7,61.77,160.28,60.35Z"/><path class="cls-10" d="M0,63.87A9.43,9.43,0,0,1,1.1,58.93C3.42,54.51,10,53.64,13,57.34a6.3,6.3,0,0,1,.51.76c.59,1.08,1.49,2.51.87,3.39s-2.37.28-3.61.45c-.54.08-.42-.4-.48-.73-.3-1.93-1-2.73-2.54-2.77s-2.57.81-3,2.58a13.83,13.83,0,0,0,0,5.87,2.81,2.81,0,0,0,2.56,2.42,2.54,2.54,0,0,0,3-2.08c.28-1,.78-1.21,1.66-1,.21,0,.43.06.65.09,2.21.23,2.22.25,1.39,2.31a6.28,6.28,0,0,1-5.91,4.06,7,7,0,0,1-7.07-3.84A9.41,9.41,0,0,1,0,63.87Z"/><path class="cls-9" d="M47.43,63.83c0-2.5,0-5,0-7.5,0-.82.22-1,1-1,3.42,0,6.84,0,10.27,0,.83,0,1,.25,1,1,0,2.4,0,2.4-2.41,2.4-1.62,0-3.24,0-4.87,0-.61,0-.8.16-.82.8-.12,2.94-.14,2.94,2.77,2.94h1.31c2.39,0,2.67.37,2.28,2.78-.09.6-.42.55-.82.55-1.54,0-3.07,0-4.61,0-.77,0-1,.26-.93,1,0,1.62,0,3.24,0,4.87,0,.62-.17.79-.81.82-3.42.14-3.42.16-3.42-3.22Z"/><path class="cls-6" d="M33.22,63.84c0-2.5,0-5,0-7.5,0-.81.2-1,1-1,3.42,0,6.84,0,10.26,0,1,0,1.05.38,1,1.16,0,2.29,0,2.29-2.23,2.29-1.62,0-3.25,0-4.87,0-.69,0-1,.11-1,.91,0,2.83-.07,2.83,2.76,2.83.49,0,1,0,1.45,0,.69.05,1.74-.35,2,.18a6.74,6.74,0,0,1,.15,2.71c0,.61-.56.42-.91.42-1.5,0-3,0-4.48,0-.77,0-1,.25-.94,1,0,1.62,0,3.25,0,4.87,0,.63-.18.79-.81.82-3.43.14-3.43.16-3.43-3.21Z"/><path class="cls-6" d="M241,55.33c-1.57,2.9-3,5.67-4.57,8.39a5.47,5.47,0,0,0-.79,3.1c.08,1.58,0,3.16,0,4.73,0,.7-.19.88-.88.9-3.26.1-3.42.11-3.22-3.11a12.7,12.7,0,0,0-2-7.92c-1.22-1.89-2.18-4-3.34-6.09,1.54,0,2.88,0,4.22,0,.6,0,.68.43.88.8.9,1.78,1.81,3.55,2.84,5.56.94-1.88,1.85-3.53,2.61-5.25a1.6,1.6,0,0,1,1.89-1.12A20.21,20.21,0,0,0,241,55.33Z"/><path class="cls-5" d="M191.69,65.67c0,1.88,0,3.77,0,5.65,0,.79-.1,1.14-1,1.14-3.14,0-3.14,0-3.14-3.1s0-6.31,0-9.47c0-.87-.15-1.3-1.12-1.16a8.17,8.17,0,0,1-1.31,0c-1.83,0-1.74,0-1.85-1.87-.08-1.24.22-1.63,1.53-1.59,3.37.11,6.74.07,10.12,0,.81,0,1,.21,1,1,0,2.41,0,2.42-2.36,2.42-1.89,0-1.89,0-1.89,1.92Z"/></svg>