<?xml version="1.0" encoding="UTF-8"?><svg xmlns="http://www.w3.org/2000/svg" viewBox="0 0 3628.35 2267.72"><defs><style>.d{stroke-width:.75px;}.d,.e,.f,.g{fill:none;stroke-miterlimit:10;}.d,.f{stroke:#191919;}.h{fill:#dbdbdb;}.e{stroke:#636363;}.i{letter-spacing:0em;}.j{letter-spacing:-.03em;}.f{stroke-width:2px;}.g{stroke:red;stroke-width:3px;}.k{letter-spacing:0em;}.l{letter-spacing:0em;}.m{letter-spacing:0em;}.n{letter-spacing:0em;}.o{letter-spacing:0em;}.p{letter-spacing:0em;}.q,.r{fill:#636363;}.s{letter-spacing:0em;}.r{font-family:Skia-Light, Skia Light;font-size:36px;}.t{letter-spacing:-.01em;}.u{letter-spacing:-.07em;}.v{fill:red;}</style></defs><g id="a"><line class="f" x1="1105.29" y1="296.5" x2="2319.88" y2="1971.77"/><line class="f" x1="1034.47" y1="296.5" x2="2227.82" y2="1971.77"/><path class="f" d="M1536.04,296.5l765.78,553.65s193.55,185.13,274.89,308.56l115.01,160.72,370.27,456.39,126.23,195.96"/><polyline class="f" points="1726.79 296.5 2147.54 608.92 2419.63 426.59 2593.55 296.5"/><polygon class="f" points="3283.94 1918.81 3628.35 1918.81 3628.35 1414.65 3147.43 1710.91 3283.94 1918.81"/><polygon class="d" points="2070.53 1204.38 2521.15 1729.75 2678.56 1918.81 2291.48 1918.81 1903.72 1375.66 2070.53 1204.38"/><polygon class="d" points="2116.83 1164.16 2762.75 1918.81 3154.1 1918.81 2357.03 904.76 2116.83 1164.16"/><polygon class="d" points="1877.06 867.66 2042.1 673 2301.82 850.15 2055.67 1120.52 1877.06 867.66"/><polygon class="d" points="1726.79 743.61 1886.25 557.2 2029.05 662.56 1864.62 861.73 1726.79 743.61"/><polygon class="d" points="1561.04 925.1 1718.44 757.55 1855.38 871.81 1664.67 1057.48 1561.04 925.1"/><polygon class="d" points="1576.2 657.89 1664.96 746.64 1748.34 643.09 1712.59 608.92 1718.75 587.96 1683.79 563.75 1576.2 657.89"/><polygon class="d" points="1241.34 458.85 1307.24 538.2 1517.03 335.13 1478.03 296.5 1394.65 296.5 1241.34 458.85"/><polyline class="f" points="2825.24 200.49 2201.94 648.65 2544.55 941.57 3326.83 340.78"/><polyline class="f" points="3628.35 971.54 2900.62 1398.64 2751.22 1227.54 2584.04 987.54 3408.16 366.86"/><polyline class="f" points="3628.35 1381.92 3125.92 1686.52 2933.44 1437.51 3628.35 1023.17"/><polyline class="e" points="419.26 580.97 602.21 845 749.82 695.32 774.77 730.66 637.55 881.68 1436.56 1932.32"/><polygon class="e" points="375.6 626.71 753.98 1171 358.97 1585.13 0 1040.43 375.6 626.71"/><polygon class="e" points="363.12 1670.37 805.95 1220.27 993.06 1504.05 527.37 1932.32 363.12 1670.37"/><polygon class="e" points="1005.84 1520.67 1105.29 1660.32 1346.92 1932.32 1346.92 1971.77 542.56 1971.77 538.53 1936.84 1005.84 1520.67"/><polygon class="e" points="1069.42 1449.56 1522.72 981.92 1621.45 1120.52 1172.52 1585.13 1069.42 1449.56"/><polygon class="e" points="1189.89 1607.97 1637.76 1143.43 1814.17 1391.08 1370.17 1845.03 1189.89 1607.97"/><polygon class="e" points="836.61 1143.43 1289.98 655.2 1502.03 967.13 1069.42 1428.12 836.61 1143.43"/></g><g id="b"><polygon class="g" points="1675.61 1069.39 1863.33 881.68 2042.1 1133.86 1858.86 1328.62 1675.61 1069.39"/><polygon class="v" points="1835.47 1282.13 1916.4 1204.38 1937.03 1238.5 1858.86 1319.42 1835.47 1282.13"/><polygon class="d" points="1451.13 524.75 1530.48 608.92 1451.13 683.44 1371.79 598.71 1451.13 524.75"/><polygon class="d" points="1536.04 519.37 1625.96 417.35 1780.61 538.2 1737.58 604.09 1662.27 543.58 1620.58 604.09 1536.04 519.37"/><polygon class="d" points="1467.78 746.64 1513.79 804.61 1536.04 780.28 1569.69 823.24 1618.36 780.66 1600.49 757.55 1612.66 746.64 1597.07 726.28 1605.05 716.4 1563.99 665.82 1527.86 696.62 1512.65 679.13 1482.99 704.23 1497.06 723.24 1467.78 746.64"/><polygon class="h" points="3286.73 319.4 2550.55 886.92 2326.72 588.84 3094.34 82.5 3286.73 319.4"/><polygon class="h" points="1843.19 915.93 1777.2 979.96 1839.27 1047.91 1903.72 981.92 1843.19 915.93"/><polygon class="h" points="1764.78 1002.17 1798.76 1038.76 1720.35 1120.52 1688.99 1076.66 1764.78 1002.17"/><polygon class="h" points="1768.18 1177.71 1723.79 1123.11 1802.24 1042.06 1849.42 1097.35 1768.18 1177.71"/><polygon class="h" points="1830.98 1064.3 1886.25 1005.49 1973.6 1107.5 1908.54 1171 1830.98 1064.3"/><polygon class="h" points="1991.29 1096.05 2026.69 1141.33 1941.33 1232.94 1906.97 1177.71 1991.29 1096.05"/><polygon class="h" points="2180.8 915.93 2126.44 967.13 1953.09 794.81 2003.35 744.54 2180.8 915.93"/><polygon class="h" points="2106.95 746.64 2221.83 870.71 2182.53 911.69 2064 797.69 2106.95 746.64"/><polygon class="h" points="2022.94 1010.85 2064 967.13 2126.76 1030.15 2082.93 1083.89 2022.94 1010.85"/></g><g id="c"><circle class="q" cx="1515.66" cy="1320.59" r="4.64"/><line class="e" x1="1515.66" y1="1320.59" x2="1777.2" y2="1320.59"/><text class="r" transform="translate(1530.79 1309.38)"><tspan class="j" x="0" y="0">W</tspan><tspan x="29.27" y="0">elling</tspan><tspan class="k" x="112.82" y="0">t</tspan><tspan x="124.52" y="0">on </tspan><tspan class="m" x="171.9" y="0">S</tspan><tspan x="189.54" y="0">t</tspan></text><circle class="q" cx="2401.32" cy="623.29" r="4.64"/><line class="e" x1="2401.32" y1="623.29" x2="2662.86" y2="623.29"/><text class="r" transform="translate(2416.45 612.08)"><tspan class="t" x="0" y="0">C</tspan><tspan x="20.48" y="0">e</tspan><tspan class="o" x="38.52" y="0">n</tspan><tspan x="58.36" y="0">t</tspan><tspan class="l" x="70.27" y="0">r</tspan><tspan x="81.86" y="0">al </tspan><tspan class="n" x="115.34" y="0">M</tspan><tspan class="p" x="144.5" y="0">a</tspan><tspan class="s" x="161.85" y="0">r</tspan><tspan x="173.77" y="0">ket</tspan></text><text class="r" transform="translate(2251.04 1067.62)"><tspan class="i" x="0" y="0">Q</tspan><tspan x="24.91" y="0">uee</tspan><tspan class="j" x="80.82" y="0">n</tspan><tspan class="u" x="99.61" y="0">’</tspan><tspan x="104.47" y="0">s </tspan><tspan class="s" x="126.36" y="0">R</tspan><tspan x="145.87" y="0">oad</tspan></text><circle class="q" cx="2227.3" cy="1076.37" r="4.64"/><line class="e" x1="2227.3" y1="1076.37" x2="2545.07" y2="1076.37"/></g></svg>